#!OML:ASF H:\Terrain\Patient Classification 1\Terrain2\Thursday\justin.ASF
:FULLY-SPECIFIED
:DEGREES
1836
root -14.5709 17.4341 10.3253 -9.22107 64.0522 -367.014
lowerback 7.88567 1.52336 5.68769
upperback 3.53671 2.59388 3.47257
thorax -0.665149 1.37482 0.184984
lowerneck -13.1523 0.757484 -7.26633
upperneck 39.4715 5.48314 -1.04522
head 16.2494 1.54925 1.91848
rclavicle -5.56597e-014 -6.36111e-015
rhumerus -26.2769 -0.0958666 -78.3974
rradius 47.6744
rwrist -15.8835
rhand -21.1474 14.6502
rfingers 7.12502
rthumb 5.23202 -15.2653
lclavicle -5.56597e-014 -6.36111e-015
lhumerus -37.4735 12.5438 75.7877
lradius 33.5548
lwrist 4.41663
lhand -18.1988 21.6369
lfingers 7.12502
lthumb 8.07849 51.4625
rfemur -4.66247 3.88385 21.3739
rtibia 31.2204
rfoot -20.4421 12.9802
rtoes 17.1974
lfemur -16.4098 -14.642 -11.4259
ltibia 30.8837
lfoot -4.88877 -27.4275
ltoes 15.6315
1837
root -14.6095 17.425 10.3453 -9.88221 64.3204 -367.694
lowerback 8.06023 1.65171 5.94357
upperback 3.56716 2.80135 3.54133
thorax -0.712602 1.48144 0.0925562
lowerneck -13.3612 0.603635 -7.06792
upperneck 39.5806 5.2852 -1.17482
head 16.3786 1.47327 1.80317
rclavicle 1.93815e-014 -3.97569e-014
rhumerus -26.1863 0.100207 -78.3827
rradius 47.8146
rwrist -16.0377
rhand -21.1184 14.5441
rfingers 7.12502
rthumb 5.26 -15.3707
lclavicle 1.93815e-014 -3.97569e-014
lhumerus -37.4367 11.7113 76.3917
lradius 33.9852
lwrist 5.24324
lhand -18.6693 22.3674
lfingers 7.12502
lthumb 7.62437 52.2099
rfemur -4.6349 3.51297 21.6953
rtibia 31.0379
rfoot -20.4134 13.1651
rtoes 16.2873
lfemur -16.7603 -14.3775 -11.1533
ltibia 31.434
lfoot -5.64075 -26.258
ltoes 11.8248
1838
root -14.6421 17.4199 10.3661 -10.3497 64.5492 -368.034
lowerback 8.26177 1.82434 6.09009
upperback 3.65061 3.0593 3.58729
thorax -0.721096 1.61414 0.0327909
lowerneck -13.2766 0.423677 -7.10676
upperneck 39.3723 5.01109 -1.21849
head 16.2595 1.35868 1.73898
rclavicle -4.18442e-014 3.18055e-015
rhumerus -26.0678 0.293198 -78.2621
rradius 47.7542
rwrist -16.025
rhand -21.0738 14.3728
rfingers 7.12502
rthumb 5.3031 -15.5409
lclavicle -4.18442e-014 3.18055e-015
lhumerus -37.2315 12.145 76.5433
lradius 33.7273
lwrist 4.65686
lhand -18.6114 22.267
lfingers 7.12502
lthumb 7.68024 52.1076
rfemur -4.44499 3.01068 21.8215
rtibia 30.8458
rfoot -20.5369 13.4649
rtoes 14.401
lfemur -16.9435 -13.8717 -11.1344
ltibia 32.0192
lfoot -6.43306 -24.9875
ltoes 9.20492
1839
root -14.6745 17.43 10.3916 -9.99751 64.9391 -367.519
lowerback 8.39027 1.93167 5.66606
upperback 3.70657 3.18032 3.64012
thorax -0.75652 1.67105 0.307787
lowerneck -13.1378 0.325756 -7.22113
upperneck 39.1926 4.93671 -1.37671
head 16.1423 1.30192 1.67221
rclavicle -2.26615e-014 -2.38542e-014
rhumerus -25.9151 0.890273 -78.0815
rradius 47.551
rwrist -16.4144
rhand -20.6917 14.2153
rfingers 7.12502
rthumb 5.67201 -15.6887
lclavicle -2.26615e-014 -2.38542e-014
lhumerus -37.1916 13.3628 76.558
lradius 33.4153
lwrist 3.53485
lhand -17.7171 21.4293
lfingers 7.12502
lthumb 8.54332 51.2365
rfemur -4.26224 2.502 21.5432
rtibia 30.6082
rfoot -20.6491 13.6243
rtoes 12.7279
lfemur -17.1846 -13.1483 -11.595
ltibia 32.6355
lfoot -7.30276 -23.8983
ltoes 6.69082
1840
root -14.7034 17.4432 10.4211 -10.0723 65.2294 -367.653
lowerback 8.29711 2.0766 5.54386
upperback 3.7227 3.35896 3.75417
thorax -0.696542 1.76072 0.482932
lowerneck -13.1069 0.269041 -7.23528
upperneck 39.2159 4.90407 -1.45219
head 16.1534 1.28202 1.63826
rclavicle 5.00937e-014 -3.49861e-014
rhumerus -25.8033 1.3083 -77.8846
rradius 47.347
rwrist -16.8109
rhand -19.9732 13.7221
rfingers 7.12502
rthumb 6.36568 -16.1623
lclavicle 5.00937e-014 -3.49861e-014
lhumerus -37.3043 14.1295 76.7678
lradius 33.4249
lwrist 2.83015
lhand -16.8744 20.8613
lfingers 7.12502
lthumb 9.35651 50.6336
rfemur -4.20176 2.29737 21.6635
rtibia 30.3259
rfoot -20.5681 13.4879
rtoes 12.0727
lfemur -17.513 -12.045 -11.7245
ltibia 33.2379
lfoot -8.59801 -22.9915
ltoes 2.34763
1841
root -14.7321 17.4449 10.4438 -11.1756 65.5063 -368.896
lowerback 8.22723 2.17555 6.12488
upperback 3.73908 3.53347 3.85768
thorax -0.604958 1.85727 0.259298
lowerneck -13.1552 0.199744 -7.26678
upperneck 39.2857 4.73798 -1.21556
head 16.1938 1.24174 1.72267
rclavicle 1.09332e-014 -2.06736e-014
rhumerus -25.6252 1.34645 -77.8054
rradius 46.9514
rwrist -16.6126
rhand -20.1761 13.3702
rfingers 7.12502
rthumb 6.16978 -16.52
lclavicle 1.09332e-014 -2.06736e-014
lhumerus -37.3753 14.4444 76.8833
lradius 33.4666
lwrist 2.45858
lhand -16.0438 20.8748
lfingers 7.12502
lthumb 10.1579 50.6096
rfemur -4.11017 1.98544 22.2779
rtibia 30.0144
rfoot -20.6795 13.0626
rtoes 9.14887
lfemur -17.8215 -10.8668 -11.3529
ltibia 33.8216
lfoot -9.31058 -22.0657
ltoes 0.030104
1842
root -14.7608 17.4473 10.4666 -11.4294 65.9833 -369.053
lowerback 8.24509 2.18521 6.18322
upperback 3.82177 3.54728 3.78385
thorax -0.519813 1.86928 0.151856
lowerneck -13.1758 0.108613 -7.26352
upperneck 39.1743 4.5009 -1.01402
head 16.137 1.1734 1.76787
rclavicle -1.07344e-014 -7.15625e-015
rhumerus -25.3199 1.41078 -77.9011
rradius 46.3424
rwrist -16.2275
rhand -20.8357 13.2633
rfingers 7.12502
rthumb 5.53303 -16.6445
lclavicle -1.07344e-014 -7.15625e-015
lhumerus -37.3644 14.5806 76.9613
lradius 33.5088
lwrist 2.72977
lhand -15.7377 20.6827
lfingers 7.12502
lthumb 10.4532 50.4028
rfemur -3.81847 1.69981 22.3519
rtibia 29.6319
rfoot -20.8743 12.6686
rtoes 6.8766
lfemur -18.0046 -9.9593 -11.5359
ltibia 34.4246
lfoot -9.20799 -20.9624
ltoes 0.784183
1843
root -14.7846 17.4623 10.4956 -11.3938 66.487 -368.925
lowerback 8.18673 2.21595 6.01974
upperback 3.89235 3.56513 3.70448
thorax -0.419039 1.88044 0.163879
lowerneck -13.0826 0.0105875 -7.31718
upperneck 38.9535 4.24052 -0.799462
head 15.9963 1.09377 1.81984
rclavicle -4.57205e-015 -8.74653e-015
rhumerus -25.0723 1.43997 -77.9233
rradius 45.7394
rwrist -16.0888
rhand -20.6964 13.4778
rfingers 7.12502
rthumb 5.6675 -16.4264
lclavicle -4.57205e-015 -8.74653e-015
lhumerus -37.4065 14.3603 77.2965
lradius 33.6702
lwrist 3.23621
lhand -16.4906 19.6302
lfingers 7.12502
lthumb 9.72689 49.3855
rfemur -3.45955 1.83389 22.3652
rtibia 29.1902
rfoot -20.9028 12.31
rtoes 7.74076
lfemur -18.1722 -8.97552 -11.903
ltibia 35.0285
lfoot -9.34165 -19.7874
ltoes 0.572175
1844
root -14.8044 17.468 10.5194 -11.7698 67.0707 -369.291
lowerback 8.10455 2.10847 6.0557
upperback 3.90663 3.41814 3.69142
thorax -0.361703 1.80978 0.146129
lowerneck -12.9936 0.0063861 -7.32978
upperneck 38.7487 4.15591 -0.690332
head 15.8653 1.07804 1.84826
rclavicle 1.80894e-014 2.46493e-014
rhumerus -24.8107 1.81442 -78.0128
rradius 45.1171
rwrist -16.1461
rhand -20.7529 14.3273
rfingers 7.12502
rthumb 5.61293 -15.5783
lclavicle 1.80894e-014 2.46493e-014
lhumerus -37.7068 14.2816 77.489
lradius 33.7917
lwrist 3.35826
lhand -17.2163 18.5453
lfingers 7.12502
lthumb 9.02661 48.3322
rfemur -3.1404 1.72402 22.5373
rtibia 28.7899
rfoot -21.1409 12.0353
rtoes 8.23527
lfemur -18.3401 -8.05967 -12.1163
ltibia 35.5629
lfoot -9.67983 -18.7448
ltoes 0.133803
1845
root -14.8199 17.4664 10.5358 -11.3816 67.7199 -368.774
lowerback 8.0604 2.01406 5.842
upperback 3.92791 3.26909 3.57628
thorax -0.327348 1.73416 0.159079
lowerneck -12.9086 0.0351915 -7.2096
upperneck 38.6032 4.11431 -0.636522
head 15.7687 1.09137 1.83837
rclavicle -6.69904e-014 -1.03368e-014
rhumerus -24.5918 2.24782 -78.1438
rradius 44.4941
rwrist -16.1778
rhand -21.2298 14.7602
rfingers 7.12502
rthumb 5.15251 -15.1571
lclavicle -6.69904e-014 -1.03368e-014
lhumerus -38.1425 14.599 77.453
lradius 33.886
lwrist 2.89155
lhand -17.1729 18.8288
lfingers 7.12502
lthumb 9.06853 48.6139
rfemur -2.75762 1.29546 22.2329
rtibia 28.3256
rfoot -21.3004 12.2444
rtoes 10.2005
lfemur -18.4493 -7.21541 -12.7703
ltibia 36.1496
lfoot -10.4916 -17.6317
ltoes 0.00977915
1846
root -14.837 17.4846 10.5567 -10.7398 68.3012 -367.983
lowerback 8.06054 2.10145 5.55601
upperback 3.94235 3.35885 3.43206
thorax -0.317788 1.77576 0.161971
lowerneck -12.8366 -0.0167519 -7.23819
upperneck 38.6422 3.89114 -0.230402
head 15.7599 1.0538 1.98215
rclavicle -6.0033e-014 4.53229e-014
rhumerus -24.4919 2.19518 -78.1086
rradius 43.8662
rwrist -16.0879
rhand -21.1313 14.408
rfingers 7.12502
rthumb 5.24756 -15.5071
lclavicle -6.0033e-014 4.53229e-014
lhumerus -38.441 14.4477 77.706
lradius 34.2102
lwrist 2.69465
lhand -16.9933 20.2985
lfingers 7.12502
lthumb 9.24183 50.076
rfemur -2.38104 1.10947 21.95
rtibia 27.8107
rfoot -21.4007 11.8998
rtoes 11.7805
lfemur -18.5076 -6.28308 -13.5199
ltibia 36.8158
lfoot -11.4622 -16.2112
ltoes -0.320976
1847
root -14.8592 17.4896 10.5804 -11.8306 68.7713 -369.106
lowerback 8.02178 2.06969 5.74945
upperback 3.97763 3.33357 3.58892
thorax -0.258411 1.76874 0.221702
lowerneck -13.027 -0.102604 -7.45246
upperneck 38.8285 3.76234 0.051392
head 15.894 1.00165 2.12982
rclavicle 3.02153e-014 4.13472e-014
rhumerus -24.2683 2.36014 -78.0293
rradius 43.2145
rwrist -15.8504
rhand -20.9031 13.9403
rfingers 7.12502
rthumb 5.46795 -15.9691
lclavicle 3.02153e-014 4.13472e-014
lhumerus -38.4944 13.9029 78.3514
lradius 34.3295
lwrist 3.28615
lhand -17.3057 21.3898
lfingers 7.12502
lthumb 8.94038 51.1804
rfemur -2.06615 1.28973 22.5455
rtibia 27.335
rfoot -21.5671 11.1358
rtoes 11.8394
lfemur -18.6676 -5.37185 -13.4153
ltibia 37.5306
lfoot -11.823 -14.9039
ltoes 0.221421
1848
root -14.8826 17.4849 10.5978 -14.4432 69.2619 -371.809
lowerback 8.01571 1.79983 6.40215
upperback 4.04473 3.03764 3.96274
thorax -0.180174 1.63603 0.271699
lowerneck -13.328 -0.126067 -7.68472
upperneck 38.9681 3.87246 -0.0139341
head 16.0378 0.99528 2.1705
rclavicle -5.18828e-014 1.19271e-014
rhumerus -23.9117 3.05454 -78.011
rradius 42.598
rwrist -15.7765
rhand -20.8582 13.6533
rfingers 7.12502
rthumb 5.51122 -16.255
lclavicle -5.18828e-014 1.19271e-014
lhumerus -38.3625 13.5348 78.9741
lradius 34.0071
lwrist 4.08071
lhand -17.3336 21.2826
lfingers 7.12502
lthumb 8.91339 51.0743
rfemur -1.81421 1.05419 23.6443
rtibia 27.0364
rfoot -21.966 10.4777
rtoes 9.99359
lfemur -18.8844 -4.324 -12.7506
ltibia 38.1685
lfoot -11.909 -13.9548
ltoes 0.531454
1849
root -14.9045 17.4846 10.6193 -15.1723 69.8893 -372.468
lowerback 8.06191 1.6085 6.4166
upperback 4.082 2.79134 3.99038
thorax -0.177799 1.51556 0.30968
lowerneck -13.4373 -0.115064 -7.70796
upperneck 38.9621 3.92134 -0.0497418
head 16.0608 1.00498 2.16899
rclavicle -9.34288e-015 -2.94201e-014
rhumerus -23.6431 3.32968 -78.1889
rradius 41.9241
rwrist -15.6924
rhand -20.6321 13.4567
rfingers 7.12502
rthumb 5.72952 -16.4458
lclavicle -9.34288e-015 -2.94201e-014
lhumerus -38.2538 13.6496 79.0277
lradius 33.4895
lwrist 3.92758
lhand -16.8053 20.6678
lfingers 7.12502
lthumb 9.42321 50.4372
rfemur -1.56666 0.647589 23.8338
rtibia 26.8023
rfoot -22.2565 10.1645
rtoes 8.94398
lfemur -19.0048 -3.41945 -12.9213
ltibia 38.7749
lfoot -11.5629 -12.9382
ltoes 3.23055
